   0
SECTION
   2
ENTITIES
   0
3DFACE
   8
SmallFault_Depth
  10
551177.468994
  20
7817445.07764
  30
-10329.0957031
  11
551180.669678
  21
7817650.86035
  31
-10258.2734375
  12
551131.898438
  22
7817659.47266
  32
-10383.3232422
  13
551131.898438
  23
7817659.47266
  33
-10383.3232422
   0
3DFACE
   8
SmallFault_Depth
  10
551447.179688
  20
7817488.13281
  30
-9713.23730469
  11
551369.222656
  21
7817557.00781
  31
-9829.34570313
  12
551375.461426
  22
7817416.74219
  32
-9855.6796875
  13
551375.461426
  23
7817416.74219
  33
-9855.6796875
   0
3DFACE
   8
SmallFault_Depth
  10
551340.761719
  20
7817339.45703
  30
-9931.91308594
  11
551385.053101
  21
7817163.36475
  31
-9869.42578125
  12
551405.077148
  22
7817288.25537
  32
-9818.02832031
  13
551405.077148
  23
7817288.25537
  33
-9818.02832031
   0
3DFACE
   8
SmallFault_Depth
  10
551356.783447
  20
7816874.43066
  30
-10008.0996094
  11
551346.150024
  21
7817069.93604
  31
-9937.20996094
  12
551286.478027
  22
7817052.14355
  32
-10081.984375
  13
551286.478027
  23
7817052.14355
  33
-10081.984375
   0
3DFACE
   8
SmallFault_Depth
  10
550952.943359
  20
7817057.15234
  30
-11078.8417969
  11
550964.037109
  21
7816921.21875
  31
-11078.8300781
  12
551019.441406
  22
7817040.47363
  32
-10894.0966797
  13
551019.441406
  23
7817040.47363
  33
-10894.0966797
   0
3DFACE
   8
SmallFault_Depth
  10
551066.603516
  20
7817644.92578
  30
-10550.4033203
  11
551108.798096
  21
7817505.14795
  31
-10508.0957031
  12
551131.898438
  22
7817659.47266
  32
-10383.3232422
  13
551131.898438
  23
7817659.47266
  33
-10383.3232422
   0
3DFACE
   8
SmallFault_Depth
  10
551450.529297
  20
7817079.14307
  30
-9773.57421875
  11
551346.150024
  21
7817069.93604
  31
-9937.20996094
  12
551520.744995
  22
7816835.13232
  32
-9842.5078125
  13
551520.744995
  23
7816835.13232
  33
-9842.5078125
   0
3DFACE
   8
SmallFault_Depth
  10
551241.302734
  20
7817443.82031
  30
-10126.4873047
  11
551177.468994
  21
7817445.07764
  31
-10329.0957031
  12
551257.966797
  22
7817265.32031
  32
-10131.9453125
  13
551257.966797
  23
7817265.32031
  33
-10131.9453125
   0
3DFACE
   8
SmallFault_Depth
  10
551455.640747
  20
7817191.76465
  30
-9741.21875
  11
551385.053101
  21
7817163.36475
  31
-9869.42578125
  12
551450.529297
  22
7817079.14307
  32
-9773.57421875
  13
551450.529297
  23
7817079.14307
  33
-9773.57421875
   0
3DFACE
   8
SmallFault_Depth
  10
551262.706055
  20
7816553.5791
  30
-10261.6494141
  11
551281.071411
  21
7816763.1084
  31
-10185.9804688
  12
551194.499878
  22
7816918.34082
  32
-10431.8769531
  13
551194.499878
  23
7816918.34082
  33
-10431.8769531
   0
3DFACE
   8
SmallFault_Depth
  10
551375.461426
  20
7817416.74219
  30
-9855.6796875
  11
551405.077148
  21
7817288.25537
  31
-9818.02832031
  12
551425.110596
  22
7817376.00439
  32
-9768.21191406
  13
551425.110596
  23
7817376.00439
  33
-9768.21191406
   0
3DFACE
   8
SmallFault_Depth
  10
551131.898438
  20
7817659.47266
  30
-10383.3232422
  11
551108.798096
  21
7817505.14795
  31
-10508.0957031
  12
551177.468994
  22
7817445.07764
  32
-10329.0957031
  13
551177.468994
  23
7817445.07764
  33
-10329.0957031
   0
3DFACE
   8
SmallFault_Depth
  10
551385.053101
  20
7817163.36475
  30
-9869.42578125
  11
551346.150024
  21
7817069.93604
  31
-9937.20996094
  12
551450.529297
  22
7817079.14307
  32
-9773.57421875
  13
551450.529297
  23
7817079.14307
  33
-9773.57421875
   0
3DFACE
   8
SmallFault_Depth
  10
551295.905273
  20
7817601.00488
  30
-9978.93554688
  11
551241.302734
  21
7817443.82031
  31
-10126.4873047
  12
551341.474609
  22
7817506.33984
  32
-9895.33984375
  13
551341.474609
  23
7817506.33984
  33
-9895.33984375
   0
3DFACE
   8
SmallFault_Depth
  10
550964.037109
  20
7816921.21875
  30
-11078.8300781
  11
550963.524719
  21
7816553.58691
  31
-11106.1513672
  12
551015.894531
  22
7816693.4043
  32
-10960.3515625
  13
551015.894531
  23
7816693.4043
  33
-10960.3515625
   0
3DFACE
   8
SmallFault_Depth
  10
551194.499878
  20
7816918.34082
  30
-10431.8769531
  11
551220.550781
  21
7817129.10547
  31
-10282.9658203
  12
551103.517578
  22
7817007.55469
  32
-10651.4433594
  13
551103.517578
  23
7817007.55469
  33
-10651.4433594
   0
3DFACE
   8
SmallFault_Depth
  10
551103.517578
  20
7817007.55469
  30
-10651.4433594
  11
551220.550781
  21
7817129.10547
  31
-10282.9658203
  12
551122.058594
  22
7817310.59375
  32
-10559.5029297
  13
551122.058594
  23
7817310.59375
  33
-10559.5029297
   0
3DFACE
   8
SmallFault_Depth
  10
551160.592896
  20
7816771.30664
  30
-10581.5009766
  11
551089.770996
  21
7816755.38379
  31
-10789.0664063
  12
551150.01001
  22
7816553.58936
  32
-10717.7011719
  13
551150.01001
  23
7816553.58936
  33
-10717.7011719
   0
3DFACE
   8
SmallFault_Depth
  10
551458.323853
  20
7817303.28125
  30
-9713.16699219
  11
551425.110596
  21
7817376.00439
  31
-9768.21191406
  12
551405.077148
  22
7817288.25537
  32
-9818.02832031
  13
551405.077148
  23
7817288.25537
  33
-9818.02832031
   0
3DFACE
   8
SmallFault_Depth
  10
551281.071411
  20
7816763.1084
  30
-10185.9804688
  11
551303.254639
  21
7816553.58838
  31
-10115.4824219
  12
551364.016724
  22
7816553.57959
  32
-10000.4589844
  13
551364.016724
  23
7816553.57959
  33
-10000.4589844
   0
3DFACE
   8
SmallFault_Depth
  10
551241.302734
  20
7817443.82031
  30
-10126.4873047
  11
551257.966797
  21
7817265.32031
  31
-10131.9453125
  12
551340.761719
  22
7817339.45703
  32
-9931.91308594
  13
551340.761719
  23
7817339.45703
  33
-9931.91308594
   0
3DFACE
   8
SmallFault_Depth
  10
551257.966797
  20
7817265.32031
  30
-10131.9453125
  11
551286.478027
  21
7817052.14355
  31
-10081.984375
  12
551346.150024
  22
7817069.93604
  32
-9937.20996094
  13
551346.150024
  23
7817069.93604
  33
-9937.20996094
   0
3DFACE
   8
SmallFault_Depth
  10
551230.236328
  20
7817637.86719
  30
-10133.9160156
  11
551180.669678
  21
7817650.86035
  31
-10258.2734375
  12
551241.302734
  22
7817443.82031
  32
-10126.4873047
  13
551241.302734
  23
7817443.82031
  33
-10126.4873047
   0
3DFACE
   8
SmallFault_Depth
  10
551257.966797
  20
7817265.32031
  30
-10131.9453125
  11
551122.058594
  21
7817310.59375
  31
-10559.5029297
  12
551220.550781
  22
7817129.10547
  32
-10282.9658203
  13
551220.550781
  23
7817129.10547
  33
-10282.9658203
   0
3DFACE
   8
SmallFault_Depth
  10
551281.071411
  20
7816763.1084
  30
-10185.9804688
  11
551262.706055
  21
7816553.5791
  31
-10261.6494141
  12
551303.254639
  22
7816553.58838
  32
-10115.4824219
  13
551303.254639
  23
7816553.58838
  33
-10115.4824219
   0
3DFACE
   8
SmallFault_Depth
  10
551122.058594
  20
7817310.59375
  30
-10559.5029297
  11
551257.966797
  21
7817265.32031
  31
-10131.9453125
  12
551177.468994
  22
7817445.07764
  32
-10329.0957031
  13
551177.468994
  23
7817445.07764
  33
-10329.0957031
   0
3DFACE
   8
SmallFault_Depth
  10
550961.269531
  20
7817200.25
  30
-11044.1914063
  11
551043.325317
  21
7817222.61572
  31
-10797.3242188
  12
550978.556641
  22
7817337.58984
  32
-10979.4316406
  13
550978.556641
  23
7817337.58984
  33
-10979.4316406
   0
3DFACE
   8
SmallFault_Depth
  10
551122.058594
  20
7817310.59375
  30
-10559.5029297
  11
551177.468994
  21
7817445.07764
  31
-10329.0957031
  12
551108.798096
  22
7817505.14795
  32
-10508.0957031
  13
551108.798096
  23
7817505.14795
  33
-10508.0957031
   0
3DFACE
   8
SmallFault_Depth
  10
551220.550781
  20
7817129.10547
  30
-10282.9658203
  11
551254.72876
  21
7816954.76904
  31
-10225.9267578
  12
551286.478027
  22
7817052.14355
  32
-10081.984375
  13
551286.478027
  23
7817052.14355
  33
-10081.984375
   0
3DFACE
   8
SmallFault_Depth
  10
551281.071411
  20
7816763.1084
  30
-10185.9804688
  11
551356.783447
  21
7816874.43066
  31
-10008.0996094
  12
551254.72876
  22
7816954.76904
  32
-10225.9267578
  13
551254.72876
  23
7816954.76904
  33
-10225.9267578
   0
3DFACE
   8
SmallFault_Depth
  10
551341.474609
  20
7817506.33984
  30
-9895.33984375
  11
551241.302734
  21
7817443.82031
  31
-10126.4873047
  12
551340.761719
  22
7817339.45703
  32
-9931.91308594
  13
551340.761719
  23
7817339.45703
  33
-9931.91308594
   0
3DFACE
   8
SmallFault_Depth
  10
551346.150024
  20
7817069.93604
  30
-9937.20996094
  11
551356.783447
  21
7816874.43066
  31
-10008.0996094
  12
551520.744995
  22
7816835.13232
  32
-9842.5078125
  13
551520.744995
  23
7816835.13232
  33
-9842.5078125
   0
3DFACE
   8
SmallFault_Depth
  10
551066.603516
  20
7817644.92578
  30
-10550.4033203
  11
551036.303955
  21
7817559.12891
  31
-10714.6748047
  12
551108.798096
  22
7817505.14795
  32
-10508.0957031
  13
551108.798096
  23
7817505.14795
  33
-10508.0957031
   0
3DFACE
   8
SmallFault_Depth
  10
551241.302734
  20
7817443.82031
  30
-10126.4873047
  11
551180.669678
  21
7817650.86035
  31
-10258.2734375
  12
551177.468994
  22
7817445.07764
  32
-10329.0957031
  13
551177.468994
  23
7817445.07764
  33
-10329.0957031
   0
3DFACE
   8
SmallFault_Depth
  10
551375.461426
  20
7817416.74219
  30
-9855.6796875
  11
551425.110596
  21
7817376.00439
  31
-9768.21191406
  12
551447.179688
  22
7817488.13281
  32
-9713.23730469
  13
551447.179688
  23
7817488.13281
  33
-9713.23730469
   0
3DFACE
   8
SmallFault_Depth
  10
551356.783447
  20
7816874.43066
  30
-10008.0996094
  11
551281.071411
  21
7816763.1084
  31
-10185.9804688
  12
551364.016724
  22
7816553.57959
  32
-10000.4589844
  13
551364.016724
  23
7816553.57959
  33
-10000.4589844
   0
3DFACE
   8
SmallFault_Depth
  10
551405.077148
  20
7817288.25537
  30
-9818.02832031
  11
551455.640747
  21
7817191.76465
  31
-9741.21875
  12
551458.323853
  22
7817303.28125
  32
-9713.16699219
  13
551458.323853
  23
7817303.28125
  33
-9713.16699219
   0
3DFACE
   8
SmallFault_Depth
  10
551027.128296
  20
7816553.58398
  30
-10937.4150391
  11
551015.894531
  21
7816693.4043
  31
-10960.3515625
  12
550963.524719
  22
7816553.58691
  32
-11106.1513672
  13
550963.524719
  23
7816553.58691
  33
-11106.1513672
   0
3DFACE
   8
SmallFault_Depth
  10
551286.478027
  20
7817052.14355
  30
-10081.984375
  11
551254.72876
  21
7816954.76904
  31
-10225.9267578
  12
551356.783447
  22
7816874.43066
  32
-10008.0996094
  13
551356.783447
  23
7816874.43066
  33
-10008.0996094
   0
3DFACE
   8
SmallFault_Depth
  10
551461.378418
  20
7817389.3877
  30
-9694.87988281
  11
551447.179688
  21
7817488.13281
  31
-9713.23730469
  12
551425.110596
  22
7817376.00439
  32
-9768.21191406
  13
551425.110596
  23
7817376.00439
  33
-9768.21191406
   0
3DFACE
   8
SmallFault_Depth
  10
551385.053101
  20
7817163.36475
  30
-9869.42578125
  11
551455.640747
  21
7817191.76465
  31
-9741.21875
  12
551405.077148
  22
7817288.25537
  32
-9818.02832031
  13
551405.077148
  23
7817288.25537
  33
-9818.02832031
   0
3DFACE
   8
SmallFault_Depth
  10
551340.761719
  20
7817339.45703
  30
-9931.91308594
  11
551405.077148
  21
7817288.25537
  31
-9818.02832031
  12
551375.461426
  22
7817416.74219
  32
-9855.6796875
  13
551375.461426
  23
7817416.74219
  33
-9855.6796875
   0
3DFACE
   8
SmallFault_Depth
  10
551356.783447
  20
7816874.43066
  30
-10008.0996094
  11
551364.016724
  21
7816553.57959
  31
-10000.4589844
  12
551477.649902
  22
7816686.57764
  32
-9869.43066406
  13
551477.649902
  23
7816686.57764
  33
-9869.43066406
   0
3DFACE
   8
SmallFault_Depth
  10
551346.150024
  20
7817069.93604
  30
-9937.20996094
  11
551340.761719
  21
7817339.45703
  31
-9931.91308594
  12
551257.966797
  22
7817265.32031
  32
-10131.9453125
  13
551257.966797
  23
7817265.32031
  33
-10131.9453125
   0
3DFACE
   8
SmallFault_Depth
  10
551194.499878
  20
7816918.34082
  30
-10431.8769531
  11
551254.72876
  21
7816954.76904
  31
-10225.9267578
  12
551220.550781
  22
7817129.10547
  32
-10282.9658203
  13
551220.550781
  23
7817129.10547
  33
-10282.9658203
   0
3DFACE
   8
SmallFault_Depth
  10
551341.474609
  20
7817506.33984
  30
-9895.33984375
  11
551375.461426
  21
7817416.74219
  31
-9855.6796875
  12
551369.222656
  22
7817557.00781
  32
-9829.34570313
  13
551369.222656
  23
7817557.00781
  33
-9829.34570313
   0
3DFACE
   8
SmallFault_Depth
  10
551369.222656
  20
7817557.00781
  30
-9829.34570313
  11
551295.905273
  21
7817601.00488
  31
-9978.93554688
  12
551341.474609
  22
7817506.33984
  32
-9895.33984375
  13
551341.474609
  23
7817506.33984
  33
-9895.33984375
   0
3DFACE
   8
SmallFault_Depth
  10
551385.053101
  20
7817163.36475
  30
-9869.42578125
  11
551340.761719
  21
7817339.45703
  31
-9931.91308594
  12
551346.150024
  22
7817069.93604
  32
-9937.20996094
  13
551346.150024
  23
7817069.93604
  33
-9937.20996094
   0
3DFACE
   8
SmallFault_Depth
  10
551099.631104
  20
7816553.58252
  30
-10811.6044922
  11
551015.894531
  21
7816693.4043
  31
-10960.3515625
  12
551027.128296
  22
7816553.58398
  32
-10937.4150391
  13
551027.128296
  23
7816553.58398
  33
-10937.4150391
   0
3DFACE
   8
SmallFault_Depth
  10
551375.461426
  20
7817416.74219
  30
-9855.6796875
  11
551341.474609
  21
7817506.33984
  31
-9895.33984375
  12
551340.761719
  22
7817339.45703
  32
-9931.91308594
  13
551340.761719
  23
7817339.45703
  33
-9931.91308594
   0
3DFACE
   8
SmallFault_Depth
  10
551458.323853
  20
7817303.28125
  30
-9713.16699219
  11
551461.378418
  21
7817389.3877
  31
-9694.87988281
  12
551425.110596
  22
7817376.00439
  32
-9768.21191406
  13
551425.110596
  23
7817376.00439
  33
-9768.21191406
   0
3DFACE
   8
SmallFault_Depth
  10
550952.943359
  20
7817057.15234
  30
-11078.8417969
  11
551019.441406
  21
7817040.47363
  31
-10894.0966797
  12
550961.269531
  22
7817200.25
  32
-11044.1914063
  13
550961.269531
  23
7817200.25
  33
-11044.1914063
   0
3DFACE
   8
SmallFault_Depth
  10
551257.966797
  20
7817265.32031
  30
-10131.9453125
  11
551220.550781
  21
7817129.10547
  31
-10282.9658203
  12
551286.478027
  22
7817052.14355
  32
-10081.984375
  13
551286.478027
  23
7817052.14355
  33
-10081.984375
   0
3DFACE
   8
SmallFault_Depth
  10
551160.592896
  20
7816771.30664
  30
-10581.5009766
  11
551103.517578
  21
7817007.55469
  31
-10651.4433594
  12
551089.770996
  22
7816755.38379
  32
-10789.0664063
  13
551089.770996
  23
7816755.38379
  33
-10789.0664063
   0
3DFACE
   8
SmallFault_Depth
  10
551089.770996
  20
7816755.38379
  30
-10789.0664063
  11
551019.441406
  21
7817040.47363
  31
-10894.0966797
  12
550964.037109
  22
7816921.21875
  32
-11078.8300781
  13
550964.037109
  23
7816921.21875
  33
-11078.8300781
   0
3DFACE
   8
SmallFault_Depth
  10
551089.770996
  20
7816755.38379
  30
-10789.0664063
  11
551099.631104
  21
7816553.58252
  31
-10811.6044922
  12
551150.01001
  22
7816553.58936
  32
-10717.7011719
  13
551150.01001
  23
7816553.58936
  33
-10717.7011719
   0
3DFACE
   8
SmallFault_Depth
  10
551089.770996
  20
7816755.38379
  30
-10789.0664063
  11
551015.894531
  21
7816693.4043
  31
-10960.3515625
  12
551099.631104
  22
7816553.58252
  32
-10811.6044922
  13
551099.631104
  23
7816553.58252
  33
-10811.6044922
   0
3DFACE
   8
SmallFault_Depth
  10
551241.302734
  20
7817443.82031
  30
-10126.4873047
  11
551295.905273
  21
7817601.00488
  31
-9978.93554688
  12
551230.236328
  22
7817637.86719
  32
-10133.9160156
  13
551230.236328
  23
7817637.86719
  33
-10133.9160156
   0
3DFACE
   8
SmallFault_Depth
  10
551019.441406
  20
7817040.47363
  30
-10894.0966797
  11
551103.517578
  21
7817007.55469
  31
-10651.4433594
  12
551043.325317
  22
7817222.61572
  32
-10797.3242188
  13
551043.325317
  23
7817222.61572
  33
-10797.3242188
   0
3DFACE
   8
SmallFault_Depth
  10
551194.499878
  20
7816918.34082
  30
-10431.8769531
  11
551281.071411
  21
7816763.1084
  31
-10185.9804688
  12
551254.72876
  22
7816954.76904
  32
-10225.9267578
  13
551254.72876
  23
7816954.76904
  33
-10225.9267578
   0
3DFACE
   8
SmallFault_Depth
  10
551089.770996
  20
7816755.38379
  30
-10789.0664063
  11
551103.517578
  21
7817007.55469
  31
-10651.4433594
  12
551019.441406
  22
7817040.47363
  32
-10894.0966797
  13
551019.441406
  23
7817040.47363
  33
-10894.0966797
   0
3DFACE
   8
SmallFault_Depth
  10
551356.783447
  20
7816874.43066
  30
-10008.0996094
  11
551477.649902
  21
7816686.57764
  31
-9869.43066406
  12
551520.744995
  22
7816835.13232
  32
-9842.5078125
  13
551520.744995
  23
7816835.13232
  33
-9842.5078125
   0
3DFACE
   8
SmallFault_Depth
  10
551160.592896
  20
7816771.30664
  30
-10581.5009766
  11
551194.499878
  21
7816918.34082
  31
-10431.8769531
  12
551103.517578
  22
7817007.55469
  32
-10651.4433594
  13
551103.517578
  23
7817007.55469
  33
-10651.4433594
   0
3DFACE
   8
SmallFault_Depth
  10
551122.058594
  20
7817310.59375
  30
-10559.5029297
  11
551036.303955
  21
7817559.12891
  31
-10714.6748047
  12
551003.748047
  22
7817459.95703
  32
-10870.2773438
  13
551003.748047
  23
7817459.95703
  33
-10870.2773438
   0
3DFACE
   8
SmallFault_Depth
  10
550978.556641
  20
7817337.58984
  30
-10979.4316406
  11
551043.325317
  21
7817222.61572
  31
-10797.3242188
  12
551003.748047
  22
7817459.95703
  32
-10870.2773438
  13
551003.748047
  23
7817459.95703
  33
-10870.2773438
   0
3DFACE
   8
SmallFault_Depth
  10
551122.058594
  20
7817310.59375
  30
-10559.5029297
  11
551108.798096
  21
7817505.14795
  31
-10508.0957031
  12
551036.303955
  22
7817559.12891
  32
-10714.6748047
  13
551036.303955
  23
7817559.12891
  33
-10714.6748047
   0
3DFACE
   8
SmallFault_Depth
  10
551003.748047
  20
7817459.95703
  30
-10870.2773438
  11
551043.325317
  21
7817222.61572
  31
-10797.3242188
  12
551122.058594
  22
7817310.59375
  32
-10559.5029297
  13
551122.058594
  23
7817310.59375
  33
-10559.5029297
   0
3DFACE
   8
SmallFault_Depth
  10
551089.770996
  20
7816755.38379
  30
-10789.0664063
  11
550964.037109
  21
7816921.21875
  31
-11078.8300781
  12
551015.894531
  22
7816693.4043
  32
-10960.3515625
  13
551015.894531
  23
7816693.4043
  33
-10960.3515625
   0
3DFACE
   8
SmallFault_Depth
  10
551043.325317
  20
7817222.61572
  30
-10797.3242188
  11
550961.269531
  21
7817200.25
  31
-11044.1914063
  12
551019.441406
  22
7817040.47363
  32
-10894.0966797
  13
551019.441406
  23
7817040.47363
  33
-10894.0966797
   0
3DFACE
   8
SmallFault_Depth
  10
551194.499878
  20
7816918.34082
  30
-10431.8769531
  11
551215.402222
  21
7816553.58447
  31
-10504.7744141
  12
551262.706055
  22
7816553.5791
  32
-10261.6494141
  13
551262.706055
  23
7816553.5791
  33
-10261.6494141
   0
3DFACE
   8
SmallFault_Depth
  10
551150.01001
  20
7816553.58936
  30
-10717.7011719
  11
551215.402222
  21
7816553.58447
  31
-10504.7744141
  12
551160.592896
  22
7816771.30664
  32
-10581.5009766
  13
551160.592896
  23
7816771.30664
  33
-10581.5009766
   0
3DFACE
   8
SmallFault_Depth
  10
551194.499878
  20
7816918.34082
  30
-10431.8769531
  11
551160.592896
  21
7816771.30664
  31
-10581.5009766
  12
551215.402222
  22
7816553.58447
  32
-10504.7744141
  13
551215.402222
  23
7816553.58447
  33
-10504.7744141
   0
3DFACE
   8
SmallFault_Depth
  10
551122.058594
  20
7817310.59375
  30
-10559.5029297
  11
551043.325317
  21
7817222.61572
  31
-10797.3242188
  12
551103.517578
  22
7817007.55469
  32
-10651.4433594
  13
551103.517578
  23
7817007.55469
  33
-10651.4433594
   0
ENDSEC
   0
EOF
