<?xml version="1.0" encoding="utf-8"?><svg version="1.1" id="Layer_1" xmlns="http://www.w3.org/2000/svg" xmlns:xlink="http://www.w3.org/1999/xlink" x="0px" y="0px" viewBox="0 0 122.88 62.63" style="enable-background:new 0 0 122.88 62.63" xml:space="preserve"><g><path d="M44.94,20.02c-7.77-8.05-18.67-13.18-27.82-4.34c-2.99,2.88-5.13,6.8-6.07,11c-1.12,4.98-0.28,9.53,1.79,13.28 c1.84,3.34,4.65,6.07,7.96,7.95c3.32,1.89,7.1,2.91,10.85,2.8c4.12-0.12,8.24-1.64,11.7-4.91c4.89-4.63,9.16-11.55,13.33-18.3 c4.56-7.38,9-14.57,14.45-19.43c3.89-3.47,8.05-5.71,12.27-6.94c6.06-1.76,12.12-1.37,17.63,0.55c5.42,1.88,10.28,5.22,14.02,9.42 c3.18,3.56,5.6,7.8,6.92,12.33c1.92,6.6,0.76,14.51-2.74,21.43c-2.48,4.89-6.16,9.38-10.78,12.62c-4.75,3.33-10.47,5.34-16.87,5.15 c-7.32-0.22-15.4-3.3-23.73-10.6l6.93-7.92c6.31,5.53,12.08,7.85,17.09,8c3.98,0.12,7.56-1.15,10.56-3.25 c3.13-2.19,5.66-5.3,7.4-8.74c2.36-4.66,3.2-9.75,2.04-13.75c-0.86-2.96-2.5-5.79-4.69-8.25c-2.6-2.92-5.92-5.22-9.56-6.49 c-3.55-1.23-7.44-1.5-11.28-0.38c-2.73,0.79-5.5,2.31-8.19,4.71c-4.37,3.9-8.39,10.4-12.51,17.08c-4.54,7.35-9.19,14.88-15.03,20.4 c-5.48,5.19-12.07,7.6-18.67,7.8c-5.71,0.17-11.4-1.34-16.34-4.16c-4.96-2.82-9.2-6.96-12-12.04c-3.24-5.87-4.55-12.96-2.82-20.67 c1.39-6.18,4.58-11.97,9.05-16.28c3.01-2.9,6.6-5.15,10.63-6.42c4.06-1.28,8.52-1.55,13.24-0.49c6.08,1.37,12.51,4.96,18.85,11.54 L44.94,20.02L44.94,20.02z"/></g></svg>